<mxfile host="app.diagrams.net" modified="2021-10-20T20:23:42.781Z" agent="5.0 (Windows NT 10.0; Win64; x64) AppleWebKit/537.36 (KHTML, like Gecko) Chrome/94.0.4606.81 Safari/537.36" etag="_Gen_h29P9XpJde5jETp" version="15.5.6" type="github">
  <diagram id="C5RBs43oDa-KdzZeNtuy" name="Page-1">
    <mxGraphModel dx="1038" dy="624" grid="1" gridSize="10" guides="1" tooltips="1" connect="1" arrows="1" fold="1" page="1" pageScale="1" pageWidth="827" pageHeight="1169" math="0" shadow="0">
      <root>
        <mxCell id="WIyWlLk6GJQsqaUBKTNV-0" />
        <mxCell id="WIyWlLk6GJQsqaUBKTNV-1" parent="WIyWlLk6GJQsqaUBKTNV-0" />
        <mxCell id="zwIU4QLBpwWAhk2zhrNK-26" value="Main.xaml" style="swimlane;labelBackgroundColor=none;fillColor=#dae8fc;strokeColor=#6c8ebf;" parent="WIyWlLk6GJQsqaUBKTNV-1" vertex="1">
          <mxGeometry width="800" height="2330" as="geometry" />
        </mxCell>
        <mxCell id="zwIU4QLBpwWAhk2zhrNK-88" value="" style="endArrow=classic;html=1;rounded=0;edgeStyle=orthogonalEdgeStyle;exitX=1;exitY=0.5;exitDx=0;exitDy=0;entryX=0.58;entryY=0.902;entryDx=0;entryDy=0;entryPerimeter=0;" parent="zwIU4QLBpwWAhk2zhrNK-26" source="zwIU4QLBpwWAhk2zhrNK-80" target="zwIU4QLBpwWAhk2zhrNK-95" edge="1">
          <mxGeometry width="50" height="50" relative="1" as="geometry">
            <mxPoint x="621" y="2200" as="sourcePoint" />
            <mxPoint x="551" y="700" as="targetPoint" />
            <Array as="points">
              <mxPoint x="731" y="2120" />
              <mxPoint x="731" y="710" />
            </Array>
          </mxGeometry>
        </mxCell>
        <mxCell id="zwIU4QLBpwWAhk2zhrNK-50" value="Yes" style="edgeStyle=orthogonalEdgeStyle;rounded=0;orthogonalLoop=1;jettySize=auto;html=1;exitX=0.5;exitY=1;exitDx=0;exitDy=0;exitPerimeter=0;" parent="zwIU4QLBpwWAhk2zhrNK-26" source="zwIU4QLBpwWAhk2zhrNK-95" target="zwIU4QLBpwWAhk2zhrNK-29" edge="1">
          <mxGeometry relative="1" as="geometry">
            <mxPoint x="337.5" y="680" as="sourcePoint" />
          </mxGeometry>
        </mxCell>
        <mxCell id="zwIU4QLBpwWAhk2zhrNK-117" style="edgeStyle=orthogonalEdgeStyle;rounded=0;orthogonalLoop=1;jettySize=auto;html=1;" parent="zwIU4QLBpwWAhk2zhrNK-26" source="zwIU4QLBpwWAhk2zhrNK-3" target="zwIU4QLBpwWAhk2zhrNK-27" edge="1">
          <mxGeometry relative="1" as="geometry" />
        </mxCell>
        <mxCell id="zwIU4QLBpwWAhk2zhrNK-3" value="Launch RightAngle" style="strokeWidth=2;html=1;shape=mxgraph.flowchart.start_1;whiteSpace=wrap;fillColor=#d5e8d4;strokeColor=#82b366;" parent="zwIU4QLBpwWAhk2zhrNK-26" vertex="1">
          <mxGeometry x="355" y="40" width="105" height="60" as="geometry" />
        </mxCell>
        <mxCell id="zwIU4QLBpwWAhk2zhrNK-116" style="edgeStyle=orthogonalEdgeStyle;rounded=0;orthogonalLoop=1;jettySize=auto;html=1;entryX=0.5;entryY=0;entryDx=0;entryDy=0;" parent="zwIU4QLBpwWAhk2zhrNK-26" source="zwIU4QLBpwWAhk2zhrNK-27" target="zwIU4QLBpwWAhk2zhrNK-38" edge="1">
          <mxGeometry relative="1" as="geometry" />
        </mxCell>
        <mxCell id="zwIU4QLBpwWAhk2zhrNK-27" value="Invoke Workflow File: Login.xaml()" style="swimlane;fillColor=#dae8fc;strokeColor=#6c8ebf;" parent="zwIU4QLBpwWAhk2zhrNK-26" vertex="1">
          <mxGeometry x="297.5" y="130" width="220" height="170" as="geometry" />
        </mxCell>
        <mxCell id="zwIU4QLBpwWAhk2zhrNK-4" value="Log into RightAngle" style="rounded=1;whiteSpace=wrap;html=1;absoluteArcSize=1;arcSize=14;strokeWidth=2;fillColor=#ffe6cc;strokeColor=#d79b00;" parent="zwIU4QLBpwWAhk2zhrNK-27" vertex="1">
          <mxGeometry x="66.5" y="50" width="100" height="100" as="geometry" />
        </mxCell>
        <mxCell id="zwIU4QLBpwWAhk2zhrNK-120" style="edgeStyle=orthogonalEdgeStyle;rounded=0;orthogonalLoop=1;jettySize=auto;html=1;entryX=0.5;entryY=0;entryDx=0;entryDy=0;" parent="zwIU4QLBpwWAhk2zhrNK-26" source="zwIU4QLBpwWAhk2zhrNK-29" target="zwIU4QLBpwWAhk2zhrNK-40" edge="1">
          <mxGeometry relative="1" as="geometry" />
        </mxCell>
        <mxCell id="zwIU4QLBpwWAhk2zhrNK-29" value="Invoke Workflow File: ActualizeEthanolOrder.xaml(order [String])" style="swimlane;fillColor=#dae8fc;strokeColor=#6c8ebf;" parent="zwIU4QLBpwWAhk2zhrNK-26" vertex="1">
          <mxGeometry x="162.5" y="790" width="490" height="300" as="geometry" />
        </mxCell>
        <mxCell id="zwIU4QLBpwWAhk2zhrNK-14" value="Actualize ethanol order" style="rounded=1;whiteSpace=wrap;html=1;absoluteArcSize=1;arcSize=14;strokeWidth=2;fillColor=#ffe6cc;strokeColor=#d79b00;" parent="zwIU4QLBpwWAhk2zhrNK-29" vertex="1">
          <mxGeometry x="35" y="60" width="100" height="100" as="geometry" />
        </mxCell>
        <mxCell id="zwIU4QLBpwWAhk2zhrNK-34" value="Yes" style="edgeStyle=orthogonalEdgeStyle;rounded=0;orthogonalLoop=1;jettySize=auto;html=1;entryX=0;entryY=0.5;entryDx=0;entryDy=0;" parent="zwIU4QLBpwWAhk2zhrNK-29" source="zwIU4QLBpwWAhk2zhrNK-16" target="zwIU4QLBpwWAhk2zhrNK-18" edge="1">
          <mxGeometry relative="1" as="geometry" />
        </mxCell>
        <mxCell id="zwIU4QLBpwWAhk2zhrNK-35" value="No" style="edgeStyle=orthogonalEdgeStyle;rounded=0;orthogonalLoop=1;jettySize=auto;html=1;" parent="zwIU4QLBpwWAhk2zhrNK-29" source="zwIU4QLBpwWAhk2zhrNK-16" target="zwIU4QLBpwWAhk2zhrNK-19" edge="1">
          <mxGeometry relative="1" as="geometry" />
        </mxCell>
        <mxCell id="zwIU4QLBpwWAhk2zhrNK-16" value="Is ethanol &lt;br&gt;order actualized?&amp;nbsp;" style="strokeWidth=2;html=1;shape=mxgraph.flowchart.decision;whiteSpace=wrap;fillColor=#e1d5e7;strokeColor=#9673a6;" parent="zwIU4QLBpwWAhk2zhrNK-29" vertex="1">
          <mxGeometry x="195" y="65" width="90" height="90" as="geometry" />
        </mxCell>
        <mxCell id="zwIU4QLBpwWAhk2zhrNK-17" value="" style="edgeStyle=orthogonalEdgeStyle;rounded=0;orthogonalLoop=1;jettySize=auto;html=1;" parent="zwIU4QLBpwWAhk2zhrNK-29" source="zwIU4QLBpwWAhk2zhrNK-14" target="zwIU4QLBpwWAhk2zhrNK-16" edge="1">
          <mxGeometry relative="1" as="geometry" />
        </mxCell>
        <mxCell id="zwIU4QLBpwWAhk2zhrNK-18" value="Click No, do not actualize again" style="rounded=1;whiteSpace=wrap;html=1;absoluteArcSize=1;arcSize=14;strokeWidth=2;fillColor=#ffe6cc;strokeColor=#d79b00;" parent="zwIU4QLBpwWAhk2zhrNK-29" vertex="1">
          <mxGeometry x="355" y="60" width="100" height="100" as="geometry" />
        </mxCell>
        <mxCell id="zwIU4QLBpwWAhk2zhrNK-19" value="Click OK and Save" style="rounded=1;whiteSpace=wrap;html=1;absoluteArcSize=1;arcSize=14;strokeWidth=2;fillColor=#ffe6cc;strokeColor=#d79b00;" parent="zwIU4QLBpwWAhk2zhrNK-29" vertex="1">
          <mxGeometry x="190" y="200" width="100" height="90" as="geometry" />
        </mxCell>
        <mxCell id="zwIU4QLBpwWAhk2zhrNK-108" style="edgeStyle=orthogonalEdgeStyle;rounded=0;orthogonalLoop=1;jettySize=auto;html=1;entryX=1;entryY=0.5;entryDx=0;entryDy=0;exitX=0.5;exitY=1;exitDx=0;exitDy=0;" parent="zwIU4QLBpwWAhk2zhrNK-29" source="zwIU4QLBpwWAhk2zhrNK-18" target="zwIU4QLBpwWAhk2zhrNK-19" edge="1">
          <mxGeometry relative="1" as="geometry">
            <mxPoint x="405" y="240" as="targetPoint" />
          </mxGeometry>
        </mxCell>
        <mxCell id="zwIU4QLBpwWAhk2zhrNK-40" value="Invoke Workflow File: ExistingMovementCheck.xaml()" style="swimlane;fillColor=#dae8fc;strokeColor=#6c8ebf;" parent="zwIU4QLBpwWAhk2zhrNK-26" vertex="1">
          <mxGeometry x="47.5" y="1130" width="720" height="1150" as="geometry" />
        </mxCell>
        <mxCell id="zwIU4QLBpwWAhk2zhrNK-109" style="edgeStyle=orthogonalEdgeStyle;rounded=0;orthogonalLoop=1;jettySize=auto;html=1;entryX=0;entryY=0.5;entryDx=0;entryDy=0;entryPerimeter=0;" parent="zwIU4QLBpwWAhk2zhrNK-40" source="zwIU4QLBpwWAhk2zhrNK-41" target="zwIU4QLBpwWAhk2zhrNK-53" edge="1">
          <mxGeometry relative="1" as="geometry" />
        </mxCell>
        <mxCell id="zwIU4QLBpwWAhk2zhrNK-41" value="Search for corresponding ethanol movement document" style="rounded=1;whiteSpace=wrap;html=1;absoluteArcSize=1;arcSize=14;strokeWidth=2;fillColor=#ffe6cc;strokeColor=#d79b00;" parent="zwIU4QLBpwWAhk2zhrNK-40" vertex="1">
          <mxGeometry x="50" y="60" width="100" height="100" as="geometry" />
        </mxCell>
        <mxCell id="zwIU4QLBpwWAhk2zhrNK-122" style="edgeStyle=orthogonalEdgeStyle;rounded=0;orthogonalLoop=1;jettySize=auto;html=1;entryX=0.439;entryY=-0.008;entryDx=0;entryDy=0;entryPerimeter=0;" parent="zwIU4QLBpwWAhk2zhrNK-40" source="zwIU4QLBpwWAhk2zhrNK-53" target="zwIU4QLBpwWAhk2zhrNK-57" edge="1">
          <mxGeometry relative="1" as="geometry" />
        </mxCell>
        <mxCell id="zwIU4QLBpwWAhk2zhrNK-53" value="&lt;span&gt;Does a corresponding ethanol movement document &lt;br&gt;exist?&lt;/span&gt;" style="strokeWidth=2;html=1;shape=mxgraph.flowchart.decision;whiteSpace=wrap;labelBackgroundColor=none;fillColor=#e1d5e7;strokeColor=#9673a6;" parent="zwIU4QLBpwWAhk2zhrNK-40" vertex="1">
          <mxGeometry x="271" y="60" width="100" height="100" as="geometry" />
        </mxCell>
        <mxCell id="zwIU4QLBpwWAhk2zhrNK-123" style="edgeStyle=orthogonalEdgeStyle;rounded=0;orthogonalLoop=1;jettySize=auto;html=1;entryX=0.5;entryY=0;entryDx=0;entryDy=0;" parent="zwIU4QLBpwWAhk2zhrNK-40" source="zwIU4QLBpwWAhk2zhrNK-57" target="zwIU4QLBpwWAhk2zhrNK-64" edge="1">
          <mxGeometry relative="1" as="geometry" />
        </mxCell>
        <mxCell id="zwIU4QLBpwWAhk2zhrNK-57" value="Invoke Workflow File: MovementMaintenance.xaml()" style="swimlane;labelBackgroundColor=none;fillColor=#dae8fc;strokeColor=#6c8ebf;" parent="zwIU4QLBpwWAhk2zhrNK-40" vertex="1">
          <mxGeometry x="132.5" y="220" width="429" height="170" as="geometry" />
        </mxCell>
        <mxCell id="zwIU4QLBpwWAhk2zhrNK-61" style="edgeStyle=orthogonalEdgeStyle;rounded=0;orthogonalLoop=1;jettySize=auto;html=1;" parent="zwIU4QLBpwWAhk2zhrNK-57" source="zwIU4QLBpwWAhk2zhrNK-58" target="zwIU4QLBpwWAhk2zhrNK-60" edge="1">
          <mxGeometry relative="1" as="geometry" />
        </mxCell>
        <mxCell id="zwIU4QLBpwWAhk2zhrNK-58" value="Duplicate corresponding ethanol movement document" style="rounded=1;whiteSpace=wrap;html=1;absoluteArcSize=1;arcSize=14;strokeWidth=2;labelBackgroundColor=none;fillColor=#ffe6cc;strokeColor=#d79b00;" parent="zwIU4QLBpwWAhk2zhrNK-57" vertex="1">
          <mxGeometry x="30" y="50" width="100" height="100" as="geometry" />
        </mxCell>
        <mxCell id="zwIU4QLBpwWAhk2zhrNK-63" style="edgeStyle=orthogonalEdgeStyle;rounded=0;orthogonalLoop=1;jettySize=auto;html=1;entryX=0;entryY=0.5;entryDx=0;entryDy=0;" parent="zwIU4QLBpwWAhk2zhrNK-57" source="zwIU4QLBpwWAhk2zhrNK-60" target="zwIU4QLBpwWAhk2zhrNK-62" edge="1">
          <mxGeometry relative="1" as="geometry" />
        </mxCell>
        <mxCell id="zwIU4QLBpwWAhk2zhrNK-60" value="Input RINs&amp;nbsp; movement info" style="html=1;strokeWidth=2;shape=manualInput;whiteSpace=wrap;rounded=1;size=26;arcSize=11;labelBackgroundColor=none;fillColor=#fff2cc;strokeColor=#d6b656;" parent="zwIU4QLBpwWAhk2zhrNK-57" vertex="1">
          <mxGeometry x="169.5" y="65" width="110.5" height="70" as="geometry" />
        </mxCell>
        <mxCell id="zwIU4QLBpwWAhk2zhrNK-62" value="Save RINs movement document" style="rounded=1;whiteSpace=wrap;html=1;absoluteArcSize=1;arcSize=14;strokeWidth=2;labelBackgroundColor=none;fillColor=#ffe6cc;strokeColor=#d79b00;" parent="zwIU4QLBpwWAhk2zhrNK-57" vertex="1">
          <mxGeometry x="310.5" y="50" width="100" height="100" as="geometry" />
        </mxCell>
        <mxCell id="zwIU4QLBpwWAhk2zhrNK-124" style="edgeStyle=orthogonalEdgeStyle;rounded=0;orthogonalLoop=1;jettySize=auto;html=1;entryX=0.5;entryY=0;entryDx=0;entryDy=0;" parent="zwIU4QLBpwWAhk2zhrNK-40" source="zwIU4QLBpwWAhk2zhrNK-64" target="zwIU4QLBpwWAhk2zhrNK-69" edge="1">
          <mxGeometry relative="1" as="geometry" />
        </mxCell>
        <mxCell id="zwIU4QLBpwWAhk2zhrNK-64" value="Invoke Workflow File: SearchOrders.xaml(FromDate [DateTime], ToDate [DateTime])" style="swimlane;labelBackgroundColor=none;fillColor=#dae8fc;strokeColor=#6c8ebf;" parent="zwIU4QLBpwWAhk2zhrNK-40" vertex="1">
          <mxGeometry x="107" y="430" width="480" height="160" as="geometry" />
        </mxCell>
        <mxCell id="zwIU4QLBpwWAhk2zhrNK-65" value="Search for RINs split order" style="rounded=1;whiteSpace=wrap;html=1;absoluteArcSize=1;arcSize=14;strokeWidth=2;labelBackgroundColor=none;fillColor=#ffe6cc;strokeColor=#d79b00;" parent="zwIU4QLBpwWAhk2zhrNK-64" vertex="1">
          <mxGeometry x="188" y="40" width="100" height="100" as="geometry" />
        </mxCell>
        <mxCell id="zwIU4QLBpwWAhk2zhrNK-69" value="Invoke Worklow File: ActualizeRINs.xaml(FromDate [DateTime], ToDate [DateTime], NewExternalNumber[String])" style="swimlane;labelBackgroundColor=none;startSize=23;fillColor=#dae8fc;strokeColor=#6c8ebf;" parent="zwIU4QLBpwWAhk2zhrNK-40" vertex="1">
          <mxGeometry x="22" y="624" width="650" height="420" as="geometry">
            <mxRectangle x="20" y="730" width="510" height="30" as="alternateBounds" />
          </mxGeometry>
        </mxCell>
        <mxCell id="zwIU4QLBpwWAhk2zhrNK-73" style="edgeStyle=orthogonalEdgeStyle;rounded=0;orthogonalLoop=1;jettySize=auto;html=1;entryX=0;entryY=0.5;entryDx=0;entryDy=0;" parent="zwIU4QLBpwWAhk2zhrNK-69" source="zwIU4QLBpwWAhk2zhrNK-70" target="zwIU4QLBpwWAhk2zhrNK-72" edge="1">
          <mxGeometry relative="1" as="geometry" />
        </mxCell>
        <mxCell id="zwIU4QLBpwWAhk2zhrNK-70" value="Open RINs split order and click actualize&amp;nbsp;" style="rounded=1;whiteSpace=wrap;html=1;absoluteArcSize=1;arcSize=14;strokeWidth=2;labelBackgroundColor=none;" parent="zwIU4QLBpwWAhk2zhrNK-69" vertex="1">
          <mxGeometry x="145" y="50" width="100" height="100" as="geometry" />
        </mxCell>
        <mxCell id="zwIU4QLBpwWAhk2zhrNK-75" style="edgeStyle=orthogonalEdgeStyle;rounded=0;orthogonalLoop=1;jettySize=auto;html=1;entryX=0;entryY=0.5;entryDx=0;entryDy=0;" parent="zwIU4QLBpwWAhk2zhrNK-69" source="zwIU4QLBpwWAhk2zhrNK-72" target="zwIU4QLBpwWAhk2zhrNK-74" edge="1">
          <mxGeometry relative="1" as="geometry" />
        </mxCell>
        <mxCell id="zwIU4QLBpwWAhk2zhrNK-72" value="Select actualize with existing document" style="rounded=1;whiteSpace=wrap;html=1;absoluteArcSize=1;arcSize=14;strokeWidth=2;labelBackgroundColor=none;" parent="zwIU4QLBpwWAhk2zhrNK-69" vertex="1">
          <mxGeometry x="280" y="50" width="95" height="100" as="geometry" />
        </mxCell>
        <mxCell id="zwIU4QLBpwWAhk2zhrNK-74" value="Search for RINs movement document" style="rounded=1;whiteSpace=wrap;html=1;absoluteArcSize=1;arcSize=14;strokeWidth=2;labelBackgroundColor=none;" parent="zwIU4QLBpwWAhk2zhrNK-69" vertex="1">
          <mxGeometry x="405" y="50" width="100" height="100" as="geometry" />
        </mxCell>
        <mxCell id="zwIU4QLBpwWAhk2zhrNK-79" value="Yes" style="edgeStyle=orthogonalEdgeStyle;rounded=0;orthogonalLoop=1;jettySize=auto;html=1;entryX=1;entryY=0.5;entryDx=0;entryDy=0;" parent="zwIU4QLBpwWAhk2zhrNK-69" source="zwIU4QLBpwWAhk2zhrNK-76" target="zwIU4QLBpwWAhk2zhrNK-77" edge="1">
          <mxGeometry relative="1" as="geometry" />
        </mxCell>
        <mxCell id="zwIU4QLBpwWAhk2zhrNK-126" value="No" style="edgeStyle=orthogonalEdgeStyle;rounded=0;orthogonalLoop=1;jettySize=auto;html=1;entryX=0.5;entryY=0;entryDx=0;entryDy=0;" parent="zwIU4QLBpwWAhk2zhrNK-69" source="zwIU4QLBpwWAhk2zhrNK-76" target="zwIU4QLBpwWAhk2zhrNK-80" edge="1">
          <mxGeometry relative="1" as="geometry" />
        </mxCell>
        <mxCell id="zwIU4QLBpwWAhk2zhrNK-76" value="RINs &lt;br&gt;movement document &lt;br&gt;exist?" style="strokeWidth=2;html=1;shape=mxgraph.flowchart.decision;whiteSpace=wrap;labelBackgroundColor=none;fillColor=#e1d5e7;strokeColor=#9673a6;" parent="zwIU4QLBpwWAhk2zhrNK-69" vertex="1">
          <mxGeometry x="405" y="180" width="100" height="100" as="geometry" />
        </mxCell>
        <mxCell id="zwIU4QLBpwWAhk2zhrNK-77" value="Click RINs movement document and click finish and save" style="rounded=1;whiteSpace=wrap;html=1;absoluteArcSize=1;arcSize=14;strokeWidth=2;labelBackgroundColor=none;fillColor=#ffe6cc;strokeColor=#d79b00;" parent="zwIU4QLBpwWAhk2zhrNK-69" vertex="1">
          <mxGeometry x="145" y="180" width="100" height="100" as="geometry" />
        </mxCell>
        <mxCell id="zwIU4QLBpwWAhk2zhrNK-80" value="Close window" style="rounded=1;whiteSpace=wrap;html=1;absoluteArcSize=1;arcSize=14;strokeWidth=2;labelBackgroundColor=none;fillColor=#ffe6cc;strokeColor=#d79b00;" parent="zwIU4QLBpwWAhk2zhrNK-69" vertex="1">
          <mxGeometry x="405" y="316" width="100" height="100" as="geometry" />
        </mxCell>
        <mxCell id="zwIU4QLBpwWAhk2zhrNK-113" value="Select actualize with existing document" style="rounded=1;whiteSpace=wrap;html=1;absoluteArcSize=1;arcSize=14;strokeWidth=2;labelBackgroundColor=none;fillColor=#ffe6cc;strokeColor=#d79b00;" parent="zwIU4QLBpwWAhk2zhrNK-69" vertex="1">
          <mxGeometry x="280" y="50" width="95" height="100" as="geometry" />
        </mxCell>
        <mxCell id="zwIU4QLBpwWAhk2zhrNK-114" value="Open RINs split order and click actualize&amp;nbsp;" style="rounded=1;whiteSpace=wrap;html=1;absoluteArcSize=1;arcSize=14;strokeWidth=2;labelBackgroundColor=none;fillColor=#ffe6cc;strokeColor=#d79b00;" parent="zwIU4QLBpwWAhk2zhrNK-69" vertex="1">
          <mxGeometry x="145" y="50" width="100" height="100" as="geometry" />
        </mxCell>
        <mxCell id="zwIU4QLBpwWAhk2zhrNK-125" style="edgeStyle=orthogonalEdgeStyle;rounded=0;orthogonalLoop=1;jettySize=auto;html=1;" parent="zwIU4QLBpwWAhk2zhrNK-69" source="zwIU4QLBpwWAhk2zhrNK-115" target="zwIU4QLBpwWAhk2zhrNK-76" edge="1">
          <mxGeometry relative="1" as="geometry" />
        </mxCell>
        <mxCell id="zwIU4QLBpwWAhk2zhrNK-115" value="Search for RINs movement document" style="rounded=1;whiteSpace=wrap;html=1;absoluteArcSize=1;arcSize=14;strokeWidth=2;labelBackgroundColor=none;fillColor=#ffe6cc;strokeColor=#d79b00;" parent="zwIU4QLBpwWAhk2zhrNK-69" vertex="1">
          <mxGeometry x="405" y="50" width="100" height="100" as="geometry" />
        </mxCell>
        <mxCell id="zwIU4QLBpwWAhk2zhrNK-119" style="edgeStyle=orthogonalEdgeStyle;rounded=0;orthogonalLoop=1;jettySize=auto;html=1;entryX=0.5;entryY=0;entryDx=0;entryDy=0;entryPerimeter=0;" parent="zwIU4QLBpwWAhk2zhrNK-26" source="zwIU4QLBpwWAhk2zhrNK-38" target="zwIU4QLBpwWAhk2zhrNK-95" edge="1">
          <mxGeometry relative="1" as="geometry" />
        </mxCell>
        <mxCell id="zwIU4QLBpwWAhk2zhrNK-38" value="Invoke Workflow File: OrderMaintenance.xaml(orderMaint [DataTable])" style="swimlane;fillColor=#dae8fc;strokeColor=#6c8ebf;" parent="zwIU4QLBpwWAhk2zhrNK-26" vertex="1">
          <mxGeometry x="77.5" y="320" width="660" height="270" as="geometry" />
        </mxCell>
        <mxCell id="zwIU4QLBpwWAhk2zhrNK-6" value="Search for Ethanol Orders&amp;nbsp;" style="rounded=1;whiteSpace=wrap;html=1;absoluteArcSize=1;arcSize=14;strokeWidth=2;fillColor=#ffe6cc;strokeColor=#d79b00;" parent="zwIU4QLBpwWAhk2zhrNK-38" vertex="1">
          <mxGeometry x="25" y="50" width="100" height="100" as="geometry" />
        </mxCell>
        <mxCell id="zwIU4QLBpwWAhk2zhrNK-8" value="Do ethanol orders exist?&amp;nbsp;" style="strokeWidth=2;html=1;shape=mxgraph.flowchart.decision;whiteSpace=wrap;fillColor=#e1d5e7;strokeColor=#9673a6;" parent="zwIU4QLBpwWAhk2zhrNK-38" vertex="1">
          <mxGeometry x="275" y="45" width="110" height="110" as="geometry" />
        </mxCell>
        <mxCell id="zwIU4QLBpwWAhk2zhrNK-9" value="" style="edgeStyle=orthogonalEdgeStyle;rounded=0;orthogonalLoop=1;jettySize=auto;html=1;" parent="zwIU4QLBpwWAhk2zhrNK-38" source="zwIU4QLBpwWAhk2zhrNK-6" target="zwIU4QLBpwWAhk2zhrNK-8" edge="1">
          <mxGeometry relative="1" as="geometry" />
        </mxCell>
        <mxCell id="zwIU4QLBpwWAhk2zhrNK-12" value="Send email alert to Bulk Accounting &amp;amp; terminate process" style="rounded=1;whiteSpace=wrap;html=1;absoluteArcSize=1;arcSize=14;strokeWidth=2;fillColor=#ffe6cc;strokeColor=#d79b00;" parent="zwIU4QLBpwWAhk2zhrNK-38" vertex="1">
          <mxGeometry x="516" y="50" width="100" height="100" as="geometry" />
        </mxCell>
        <mxCell id="zwIU4QLBpwWAhk2zhrNK-13" value="No" style="edgeStyle=orthogonalEdgeStyle;rounded=0;orthogonalLoop=1;jettySize=auto;html=1;" parent="zwIU4QLBpwWAhk2zhrNK-38" source="zwIU4QLBpwWAhk2zhrNK-8" target="zwIU4QLBpwWAhk2zhrNK-12" edge="1">
          <mxGeometry relative="1" as="geometry" />
        </mxCell>
        <mxCell id="zwIU4QLBpwWAhk2zhrNK-11" value="Yes" style="edgeStyle=orthogonalEdgeStyle;rounded=0;orthogonalLoop=1;jettySize=auto;html=1;" parent="zwIU4QLBpwWAhk2zhrNK-38" source="zwIU4QLBpwWAhk2zhrNK-8" edge="1">
          <mxGeometry relative="1" as="geometry">
            <mxPoint x="330" y="200" as="targetPoint" />
          </mxGeometry>
        </mxCell>
        <mxCell id="zwIU4QLBpwWAhk2zhrNK-106" value="&lt;span&gt;Store ethanol&lt;/span&gt;&lt;br&gt;&lt;span&gt;orders in&lt;/span&gt;&lt;br&gt;&lt;span&gt;data table&lt;/span&gt;" style="strokeWidth=2;html=1;shape=mxgraph.flowchart.direct_data;whiteSpace=wrap;labelBackgroundColor=none;fillColor=#d5e8d4;strokeColor=#82b366;" parent="zwIU4QLBpwWAhk2zhrNK-38" vertex="1">
          <mxGeometry x="280" y="200" width="100" height="60" as="geometry" />
        </mxCell>
        <mxCell id="zwIU4QLBpwWAhk2zhrNK-55" value="No" style="edgeStyle=orthogonalEdgeStyle;rounded=0;orthogonalLoop=1;jettySize=auto;html=1;entryX=0.86;entryY=0.7;entryDx=0;entryDy=0;entryPerimeter=0;exitX=1;exitY=0.5;exitDx=0;exitDy=0;exitPerimeter=0;" parent="zwIU4QLBpwWAhk2zhrNK-26" source="zwIU4QLBpwWAhk2zhrNK-53" target="zwIU4QLBpwWAhk2zhrNK-95" edge="1">
          <mxGeometry x="-0.8557" relative="1" as="geometry">
            <mxPoint x="521" y="640" as="targetPoint" />
            <Array as="points">
              <mxPoint x="751" y="1240" />
              <mxPoint x="751" y="690" />
            </Array>
            <mxPoint as="offset" />
          </mxGeometry>
        </mxCell>
        <mxCell id="zwIU4QLBpwWAhk2zhrNK-89" value="Send &quot;process completed&quot; email alert to Bulk Accounting&amp;nbsp;" style="rounded=1;whiteSpace=wrap;html=1;absoluteArcSize=1;arcSize=14;strokeWidth=2;labelBackgroundColor=none;fillColor=#ffe6cc;strokeColor=#d79b00;" parent="zwIU4QLBpwWAhk2zhrNK-26" vertex="1">
          <mxGeometry x="355" y="2220" width="100" height="100" as="geometry" />
        </mxCell>
        <mxCell id="zwIU4QLBpwWAhk2zhrNK-95" value="Counter &amp;gt; 0? &lt;br&gt;(For each)" style="strokeWidth=2;html=1;shape=mxgraph.flowchart.decision;whiteSpace=wrap;labelBackgroundColor=none;fillColor=#e1d5e7;strokeColor=#9673a6;" parent="zwIU4QLBpwWAhk2zhrNK-26" vertex="1">
          <mxGeometry x="357.5" y="620" width="100" height="100" as="geometry" />
        </mxCell>
        <mxCell id="zwIU4QLBpwWAhk2zhrNK-101" value="No" style="edgeStyle=orthogonalEdgeStyle;rounded=0;orthogonalLoop=1;jettySize=auto;html=1;exitX=1;exitY=0.5;exitDx=0;exitDy=0;exitPerimeter=0;entryX=1;entryY=0.5;entryDx=0;entryDy=0;" parent="zwIU4QLBpwWAhk2zhrNK-26" source="zwIU4QLBpwWAhk2zhrNK-95" target="zwIU4QLBpwWAhk2zhrNK-89" edge="1">
          <mxGeometry x="-0.8571" relative="1" as="geometry">
            <mxPoint x="781" y="2391" as="targetPoint" />
            <Array as="points">
              <mxPoint x="761" y="669" />
              <mxPoint x="761" y="2269" />
            </Array>
            <mxPoint as="offset" />
          </mxGeometry>
        </mxCell>
      </root>
    </mxGraphModel>
  </diagram>
</mxfile>
